<?xml version='1.0' encoding='UTF-8' standalone='no'?>
<!-- Created with Fritzing (http://www.fritzing.org/) -->
<svg xmlns="http://www.w3.org/2000/svg"  x="0in" height="0.6in" version="1.2" viewBox="0 0 339.114 600" baseProfile="tiny" width="0.339114in" y="0in">
    <desc>
        <referenceFile>sparkfun-poweric_dpak-5_breadboard.svg</referenceFile>
    </desc>
    <desc>Fritzing breadboard generated by brd2svg</desc>
    <g id="breadboard">
        <g id="icon">
            <path fill="#1F7A34" stroke-width="0" stroke="none" d="M0,0L0,270A30,30 0 0 1 0,330L0,600L339.114,600L339.114,0L0,0z"/>
            <g transform="translate(30.4429,91.3386)">
                <g>
                    <g transform="matrix(0.5, 0, 0, 0.5, 69.5571, 104.331)">
                        <g>
                            <rect connectorname="GND" x="25.3346" fill="#8c8c8c" height="251.969" stroke-linecap="round" width="228.346" y="3.49677e-14" stroke-width="0" stroke="none"/>
                            <rect connectorname="VOUT" x="168.642" fill="#8c8c8c" height="86.6142" stroke-linecap="round" width="31.496" y="330.709" stroke-width="0" stroke="none"/>
                            <rect connectorname="ADJ" x="213.523" fill="#8c8c8c" height="86.6142" stroke-linecap="round" width="31.496" y="330.709" stroke-width="0" stroke="none"/>
                            <rect connectorname="EN" x="33.996" fill="#8c8c8c" height="86.6142" stroke-linecap="round" width="31.496" y="330.709" stroke-width="0" stroke="none"/>
                            <rect connectorname="VIN" x="78.8779" fill="#8c8c8c" height="86.6142" stroke-linecap="round" width="31.496" y="330.709" stroke-width="0" stroke="none"/>
                            <rect x="0" fill="#303030" height="268.524" width="278.228" y="74.3996" stroke-width="0" stroke="none"/>
                            <polygon fill="#1f1f1f" points="0,74.3996 278.228,74.3996 268.228,84.3996 10,84.3996"/>
                            <polygon fill="#1f1f1f" points="0,342.923 278.228,342.923 268.228,332.923 10,332.923"/>
                            <polygon fill="#000000" points="0,74.3996 0,342.923 10,332.923 10,84.3996"/>
                            <polygon fill="#3d3d3d" points="278.228,74.3996 278.228,342.923 268.228,332.923 268.228,84.3996"/>
                            <circle r="10" fill="#1f1f1f" cx="30" stroke-width="0" stroke="none" cy="312.923"/>
                        </g>
                    </g>
                </g>
            </g>
            <text x="50" fill="white" id="label" font-size="65" text-anchor="start" y="324.375" font-family="OCRA" stroke-width="0" stroke="none">DPAK-5</text>
            <g transform="translate(83.0571,526.05)">
                <g>
                    <g transform="rotate(-90)">
                        <g>
                            <text x="0" fill="white" font-size="45" text-anchor="start" y="0" font-family="OCRA" stroke-width="0" stroke="none">ADJ</text>
                        </g>
                    </g>
                </g>
            </g>
            <g transform="translate(183.057,526.05)">
                <g>
                    <g transform="rotate(-90)">
                        <g>
                            <text x="0" fill="white" font-size="45" text-anchor="start" y="0" font-family="OCRA" stroke-width="0" stroke="none">EN</text>
                        </g>
                    </g>
                </g>
            </g>
            <g transform="translate(183.057,73.95)">
                <g>
                    <g transform="rotate(-90)">
                        <g>
                            <text x="0" fill="white" font-size="45" text-anchor="end" y="0" font-family="OCRA" stroke-width="0" stroke="none">VOUT</text>
                        </g>
                    </g>
                </g>
            </g>
            <g transform="translate(283.057,526.05)">
                <g>
                    <g transform="rotate(-90)">
                        <g>
                            <text x="0" fill="white" font-size="45" text-anchor="start" y="0" font-family="OCRA" stroke-width="0" stroke="none">GND</text>
                        </g>
                    </g>
                </g>
            </g>
            <g transform="translate(283.057,73.95)">
                <g>
                    <g transform="rotate(-90)">
                        <g>
                            <text x="0" fill="white" font-size="45" text-anchor="end" y="0" font-family="OCRA" stroke-width="0" stroke="none">VIN</text>
                        </g>
                    </g>
                </g>
            </g>
        </g>
        <g transform="translate(53.5921,534.05)">
            <g>
                <rect x="0" fill="#8D8C8C" height="31.9" id="connector0pin" width="31.93" y="0"/>
                <rect x="7.79153" fill="#8C8663" height="16.4152" width="16.4442" y="7.73544"/>
                <polygon fill="#B8AF82" points="0,31.9,7.79153,24.1368,7.79153,6.97162,0,0"/>
                <polygon fill="#80795B" points="24.2079,7.76321,7.90264,7.76321,0,0,31.93,0"/>
                <polygon fill="#5E5B43" points="24.2079,24.1368,24.2079,7.76321,31.93,0,31.93,31.9"/>
                <polygon fill="#9A916C" points="0,31.9,7.87486,24.1368,24.2079,24.1368,31.93,31.9"/>
            </g>
        </g>
        <g transform="translate(153.592,534.05)">
            <g>
                <rect x="0" fill="#8D8C8C" height="31.9" id="connector1pin" width="31.93" y="0"/>
                <rect x="7.79153" fill="#8C8663" height="16.4152" width="16.4442" y="7.73544"/>
                <polygon fill="#B8AF82" points="0,31.9,7.79153,24.1368,7.79153,6.97162,0,0"/>
                <polygon fill="#80795B" points="24.2079,7.76321,7.90264,7.76321,0,0,31.93,0"/>
                <polygon fill="#5E5B43" points="24.2079,24.1368,24.2079,7.76321,31.93,0,31.93,31.9"/>
                <polygon fill="#9A916C" points="0,31.9,7.87486,24.1368,24.2079,24.1368,31.93,31.9"/>
            </g>
        </g>
        <g transform="translate(153.592,34.05)">
            <g>
                <rect x="0" fill="#8D8C8C" height="31.9" id="connector4pin" width="31.93" y="0"/>
                <rect x="7.79153" fill="#8C8663" height="16.4152" width="16.4442" y="7.73544"/>
                <polygon fill="#B8AF82" points="0,31.9,7.79153,24.1368,7.79153,6.97162,0,0"/>
                <polygon fill="#80795B" points="24.2079,7.76321,7.90264,7.76321,0,0,31.93,0"/>
                <polygon fill="#5E5B43" points="24.2079,24.1368,24.2079,7.76321,31.93,0,31.93,31.9"/>
                <polygon fill="#9A916C" points="0,31.9,7.87486,24.1368,24.2079,24.1368,31.93,31.9"/>
            </g>
        </g>
        <g transform="translate(253.592,534.05)">
            <g>
                <rect x="0" fill="#8D8C8C" height="31.9" id="connector2pin" width="31.93" y="0"/>
                <rect x="7.79153" fill="#8C8663" height="16.4152" width="16.4442" y="7.73544"/>
                <polygon fill="#B8AF82" points="0,31.9,7.79153,24.1368,7.79153,6.97162,0,0"/>
                <polygon fill="#80795B" points="24.2079,7.76321,7.90264,7.76321,0,0,31.93,0"/>
                <polygon fill="#5E5B43" points="24.2079,24.1368,24.2079,7.76321,31.93,0,31.93,31.9"/>
                <polygon fill="#9A916C" points="0,31.9,7.87486,24.1368,24.2079,24.1368,31.93,31.9"/>
            </g>
        </g>
        <g transform="translate(253.592,34.05)">
            <g>
                <rect x="0" fill="#8D8C8C" height="31.9" id="connector3pin" width="31.93" y="0"/>
                <rect x="7.79153" fill="#8C8663" height="16.4152" width="16.4442" y="7.73544"/>
                <polygon fill="#B8AF82" points="0,31.9,7.79153,24.1368,7.79153,6.97162,0,0"/>
                <polygon fill="#80795B" points="24.2079,7.76321,7.90264,7.76321,0,0,31.93,0"/>
                <polygon fill="#5E5B43" points="24.2079,24.1368,24.2079,7.76321,31.93,0,31.93,31.9"/>
                <polygon fill="#9A916C" points="0,31.9,7.87486,24.1368,24.2079,24.1368,31.93,31.9"/>
            </g>
        </g>
    </g>
</svg>
